PathFileType	4	(X/Y/Z)	C:/Users/beibeiliu/ov580/test_trc\sequence.40_training_dense_right.trc
DataRate	CameraRate	NumFrames	NumMarkers	Units	OrigDataRate	OrigDataStartFrame	OrigNumFrames
120	120	8	19	mm	120	51	400
Frame#	Time	ThumbCMC			ThumbMCP			ThumbIP			ThumbTip			IndexMCP			IndexPIP			IndexTip			MiddleMCP			MiddlePIP			MiddleTip			RingMCP			RingPIP			RingTip			PinkyMCP			PinkyPIP			PinkyTip			BackHand1			BackHand2			BackHand3	
		X0	Y0	Z0	X1	Y1	Z1	X2	Y2	Z2	X3	Y3	Z3	X4	Y4	Z4	X5	Y5	Z5	X6	Y6	Z6	X7	Y7	Z7	X8	Y8	Z8	X9	Y9	Z9	X10	Y10	Z10	X11	Y11	Z11	X12	Y12	Z12	X13	Y13	Z13	X14	Y14	Z14	X15	Y15	Z15	X16	Y16	Z16	X17	Y17	Z17	X18	Y18	Z18	
50	0.416667	207.868	-53.0931	55.3352	222.391	-70.0116	30.7574	233.296	-69.3327	11.3464	248.628	-61.2509	-8.6296	197.564	-36.2259	-5.70082	210.947	-49.3151	-26.2546	231.853	-64.8043	-28.872	210.755	-19.9705	-11.8362	221.563	-31.1391	-31.9011	246.948	-47.4906	-39.4705	232.56	-9.04316	-3.88791	245.128	-27.8556	-17.4308	260.046	-50.2972	-3.20076	242.573	3.68895	10.505	247.809	0.0966431	-10.5747	260.783	-9.60871	-24.715	217.616	-0.91555	42.0529	217.759	-1.14932	68.5448	201.488	-17.4854	58.1094	
51	0.425	208.376	-54.6322	59.3507	222.292	-66.4795	29.5297	234.111	-66.7506	11.924	248.474	-60.0265	-7.36479	199.115	-33.8288	-2.54879	211.279	-45.8493	-23.5512	231.398	-66.8058	-28.0886	211.739	-18.2909	-6.6306	221.997	-29.6619	-31.2599	244.305	-52.3082	-40.211	233.506	-8.06746	-2.00197	245.332	-32.1133	-17.4013	260.098	-50.5618	-3.42064	242.762	4.17755	9.48884	251.832	2.45839	-7.24068	259.944	-12.4445	-27.5759	218.647	-0.234833	42.8924	221.808	0.781949	70.5677	199.238	-18.1499	57.9018	
52	0.433333	207.867	-53.442	58.0356	223.127	-69.5289	31.1858	235.505	-65.9641	11.1776	249.642	-63.4896	-5.70446	202.008	-34.5849	-5.96236	212.501	-49.7361	-25.5401	237.416	-64.8737	-27.8431	213.927	-17.0612	-9.82543	222.347	-30.9589	-31.0284	247.039	-48.8114	-39.5651	232.359	-10.802	-4.18323	246.145	-29.2941	-16.8929	259.983	-50.8451	-4.03388	243.368	3.51099	11.8005	250.447	0.485905	-9.07051	258.664	-11.7502	-25.6917	221.837	1.50117	45.0921	220.971	-3.5146	73.7111	203.196	-17.3839	57.522	
53	0.441667	209.254	-52.7375	58.9229	223.024	-70.6952	32.1481	235.47	-69.2305	13.363	252.072	-61.4349	-7.66901	201.743	-33.4707	-2.33761	213.28	-43.8865	-23.2587	234.334	-60.7017	-28.2994	212.678	-18.5805	-7.24916	226.963	-30.2939	-33.538	247.457	-47.1137	-39.978	235.119	-8.54219	-4.53839	247.958	-26.6465	-17.2999	256.796	-52.1874	-4.24149	246.693	4.98967	13.7183	254.854	2.8664	-6.21935	257.855	-10.3832	-24.677	222.634	1.37883	48.1419	221.747	-2.09302	72.77	200.507	-17.9809	57.7349	
54	0.45	212.194	-49.96	59.5466	224.457	-66.3697	35.0385	235.817	-66.5637	10.9302	249.847	-62.9116	-3.83314	203.901	-32.7663	-5.97953	215.676	-47.171	-25.8847	233.834	-61.4691	-29.9722	214.691	-17.4766	-9.13717	227.826	-30.4279	-33.2406	244.374	-48.3779	-39.8077	233.953	-10.4853	-4.0668	249.925	-25.3628	-17.0651	259.004	-48.3678	-6.87062	247.385	5.354	10.0603	255.049	0.204211	-9.02063	264.244	-13.6117	-26.9266	222.185	-0.788012	44.9546	224.268	-0.994148	73.2205	201.199	-17.0368	55.4428	
55	0.458333	213.029	-48.0668	58.6955	224.267	-63.397	31.7715	235.09	-67.1131	13.2073	250.884	-58.8454	-5.25672	203.453	-32.7822	-4.14142	216.483	-43.1384	-24.5394	233.256	-59.359	-30.6817	216.962	-15.8345	-7.88359	227.59	-27.8586	-31.3828	249.497	-48.8209	-39.918	237.87	-6.94322	-0.572232	248.082	-30.4241	-16.9371	263.239	-49.2092	-5.88661	248.876	4.61556	13.3205	259.522	1.28244	-8.3744	262.229	-12.3729	-25.1506	224.523	2.23423	45.1819	226.255	-1.25478	73.7118	202.081	-18.0461	56.2927	
56	0.466667	211.639	-46.0936	58.6358	222.903	-63.8792	32.2928	232.727	-64.3123	11.6306	247.811	-61.433	-5.74644	206.524	-28.2664	-4.25747	213.28	-41.0001	-23.0289	232.565	-61.0812	-31.4259	219.588	-13.6224	-6.66945	230.058	-23.6649	-29.5977	247.066	-46.9989	-39.9742	238.024	-8.6854	0.344214	253.359	-26.3199	-17.5636	263.386	-48.3511	-8.70259	251.279	3.19426	13.0526	262.887	1.31756	-6.38071	270.202	-13.3541	-22.5569	230.324	2.42588	48.2168	228.353	0.472918	73.4613	207.331	-13.1152	56.4454	
57	0.475	210.264	-44.0043	60.2433	218.708	-61.9394	30.7815	229.125	-66.3608	8.39637	242.55	-63.6898	-3.22027	205.434	-25.462	-1.77175	215.188	-37.8577	-24.3337	231.888	-59.5489	-30.558	225.557	-10.5436	-6.07554	232.636	-24.463	-31.7511	248.118	-45.6221	-39.9206	245.129	-6.48124	1.88805	253.354	-24.6162	-17.6202	258.064	-51.8985	-12.6261	260.429	3.69046	13.4718	263.516	-2.20934	-5.23278	271.318	-17.5431	-24.7556	231.945	1.74674	49.1358	233.38	1.62677	71.5886	211.032	-9.15726	57.2839	
